<svg width="30" height="30" viewBox="0 0 30 30" fill="none" xmlns="http://www.w3.org/2000/svg">
<circle cx="15" cy="15" r="15" fill="#4B4B4B"/>
<path fill-rule="evenodd" clip-rule="evenodd" d="M15.65 7.74219C11.8026 7.74219 8.70728 10.8375 8.70728 14.6849C8.70728 17.7513 10.7033 20.3548 13.4515 21.2805C13.7986 21.3384 13.9143 21.1359 13.9143 20.9334C13.9143 20.7598 13.9143 20.3259 13.9143 19.7474C11.9762 20.1813 11.5712 18.8217 11.5712 18.8217C11.2529 18.0117 10.7901 17.8092 10.7901 17.8092C10.1537 17.3752 10.848 17.3752 10.848 17.3752C11.5422 17.4331 11.9183 18.0985 11.9183 18.0985C12.5258 19.1688 13.5383 18.8506 13.9433 18.677C14.0011 18.2142 14.1747 17.9249 14.3772 17.7513C12.844 17.5777 11.224 16.9703 11.224 14.3089C11.224 13.5567 11.4844 12.9203 11.9472 12.4575C11.8894 12.2839 11.629 11.5896 12.0051 10.6061C12.0051 10.6061 12.5836 10.4325 13.9143 11.3293C14.464 11.1846 15.0715 11.0978 15.65 11.0978C16.2286 11.0978 16.8361 11.1846 17.3857 11.3293C18.7164 10.4325 19.295 10.6061 19.295 10.6061C19.671 11.5607 19.4396 12.255 19.3528 12.4575C19.7867 12.9492 20.076 13.5567 20.076 14.3089C20.076 16.9703 18.456 17.5488 16.8939 17.7224C17.1543 17.9249 17.3568 18.3588 17.3568 18.9952C17.3568 19.9209 17.3568 20.6731 17.3568 20.9045C17.3568 21.078 17.4725 21.3095 17.8486 21.2516C20.5967 20.3548 22.5928 17.7513 22.5928 14.6849C22.5928 10.8375 19.4975 7.74219 15.65 7.74219Z" fill="white"/>
</svg>
