<svg width="36" height="29" viewBox="0 0 36 29" fill="none" xmlns="http://www.w3.org/2000/svg">
<path d="M22.73 7.939L23.874 7.959L26.982 4.851L27.132 3.534C24.662 1.337 21.412 0 17.855 0C11.415 0 5.97902 4.382 4.36902 10.318C4.70902 10.081 5.43402 10.258 5.43402 10.258L11.646 9.236C11.646 9.236 11.966 8.706 12.126 8.739C13.4594 7.28028 15.2992 6.38528 17.2699 6.23662C19.2407 6.08795 21.1929 6.69682 22.73 7.939Z" fill="#1A1C3D"/>
<path d="M31.36 10.329C30.6459 7.70164 29.1807 5.33979 27.144 3.53296L22.742 7.93496C23.6454 8.66103 24.3745 9.58048 24.8755 10.6256C25.3765 11.6707 25.6368 12.8149 25.637 13.974V14.751C27.779 14.751 29.517 16.494 29.517 18.631C29.517 20.768 27.774 22.511 25.637 22.511H17.875L17.098 23.291V27.949L17.875 28.722H25.637C28.3102 28.7148 30.8718 27.6493 32.7614 25.7584C34.651 23.8675 35.7147 21.3052 35.72 18.632C35.716 15.196 33.984 12.152 31.35 10.329H31.36Z" fill="#1A1C3D"/>
<path d="M10.0939 28.7289H17.8539V22.5169H10.0939C9.54288 22.5172 8.99822 22.3988 8.49695 22.1699L7.37695 22.5129L4.26895 25.6209L3.99695 26.6709C5.7456 28.0136 7.89031 28.7381 10.0949 28.7309L10.0939 28.7289Z" fill="#1A1C3D"/>
<path d="M10.094 8.54199C7.41821 8.54622 4.85322 9.61105 2.96114 11.5031C1.06906 13.3952 0.00423135 15.9602 4.91191e-10 18.636C-1.53802e-05 20.1941 0.361179 21.731 1.05521 23.126C1.74925 24.521 2.75723 25.7362 4 26.676L8.5 22.176C7.81836 21.8693 7.23982 21.3723 6.83392 20.7446C6.42803 20.117 6.21207 19.3854 6.212 18.638C6.212 16.496 7.955 14.758 10.092 14.758C10.8392 14.7593 11.5702 14.9758 12.1976 15.3815C12.825 15.7873 13.3223 16.3651 13.63 17.046L18.13 12.546C16.284 10.116 13.37 8.54599 10.09 8.54599L10.094 8.54199Z" fill="#1A1C3D"/>
</svg>
