<svg width="156" height="135" viewBox="0 0 156 135" fill="none" xmlns="http://www.w3.org/2000/svg">
<path fill-rule="evenodd" clip-rule="evenodd" d="M15.5653 0C11.4371 0 7.47804 1.57727 4.55897 4.38483C1.63991 7.1924 0 11.0003 0 14.9708V119.766C0 123.737 1.63991 127.544 4.55897 130.352C7.47804 133.16 11.4371 134.737 15.5653 134.737H140.088C144.216 134.737 148.175 133.16 151.094 130.352C154.013 127.544 155.653 123.737 155.653 119.766V14.9708C155.653 11.0003 154.013 7.1924 151.094 4.38483C148.175 1.57727 144.216 0 140.088 0H15.5653ZM51.5601 42.1427C51.7328 40.7116 52.2509 39.3392 53.073 38.1349C53.8951 36.9305 54.9985 35.9277 56.2951 35.2064C57.5917 34.485 59.0457 34.0651 60.5409 33.9802C62.0362 33.8953 63.5315 34.1476 64.9074 34.7172C68.8298 36.334 77.1106 39.9719 87.6016 45.7956C94.9745 49.8484 102.095 54.3123 108.926 59.1644C110.127 60.024 111.103 61.1418 111.775 62.4284C112.447 63.7151 112.797 65.1351 112.797 66.575C112.797 68.0149 112.447 69.4349 111.775 70.7215C111.103 72.0082 110.127 73.1259 108.926 73.9855C102.094 78.8325 94.9741 83.2914 87.6016 87.3394C80.2681 91.4594 72.6904 95.1635 64.9074 98.4327C63.5316 99.0039 62.036 99.2576 60.5401 99.1734C59.0442 99.0892 57.5895 98.6696 56.2924 97.9479C54.9953 97.2263 53.8918 96.2228 53.0701 95.0176C52.2484 93.8124 51.7312 92.439 51.5601 91.0072C50.6263 82.8944 50.169 74.7374 50.1904 66.575C50.1904 54.9651 51.062 46.2222 51.5601 42.1427Z" fill="#E40505"/>
</svg>
